<svg xmlns="http://www.w3.org/2000/svg" width="22" height="22" fill="none"><path fill="#fff" d="M11 2.063A8.938 8.938 0 1 0 19.938 11 8.947 8.947 0 0 0 11 2.062zm7.532 8.265a14.487 14.487 0 0 0-4.433.486c-.3-.89-.687-1.75-1.156-2.564a14.467 14.467 0 0 0 3.283-2.711 7.543 7.543 0 0 1 2.306 4.789zM15.15 4.68a13.042 13.042 0 0 1-2.946 2.412 14.542 14.542 0 0 0-3.32-3.352 7.562 7.562 0 0 1 6.274.94h-.008zm-7.788-.308A13.16 13.16 0 0 1 10.97 7.74a13.047 13.047 0 0 1-7.213 1.08 7.596 7.596 0 0 1 3.604-4.449zM3.438 11c0-.277.015-.553.045-.828.668.093 1.342.14 2.017.14a14.42 14.42 0 0 0 6.232-1.409c.429.74.783 1.521 1.058 2.332-.73.274-1.437.607-2.113.997a14.542 14.542 0 0 0-4.733 4.387A7.546 7.546 0 0 1 3.438 11zm3.609 6.445a13.14 13.14 0 0 1 4.317-4.02c.577-.334 1.18-.62 1.8-.86a13.104 13.104 0 0 1 .021 5.674 7.557 7.557 0 0 1-6.138-.794zm7.654.149a14.493 14.493 0 0 0-.223-5.455 13.088 13.088 0 0 1 4.051-.435 7.575 7.575 0 0 1-3.829 5.89z"/></svg>